<svg xmlns="http://www.w3.org/2000/svg" viewBox="0 0 19.57 19.57"><defs><style>.cls-1{fill:#161c36;}</style></defs><title>Recurso 1</title><g id="Capa_2" data-name="Capa 2"><g id="Capa_1-2" data-name="Capa 1"><path class="cls-1" d="M9.79,0a9.79,9.79,0,1,0,9.78,9.79A9.79,9.79,0,0,0,9.79,0ZM9.7,16.5a1.47,1.47,0,0,1-1.45-1.67A1.5,1.5,0,0,1,9.7,13.16a1.56,1.56,0,0,1,1.54,1.62A1.68,1.68,0,0,1,9.7,16.5ZM11.42,4.85c-.25,1.74-.55,3.48-.82,5.21-.1.63-.2,1.25-.26,1.88s-.39.29-.62.3-.48.12-.52-.27c-.23-2.33-.71-4.61-1-6.92,0-.14,0-.28,0-.41A1.52,1.52,0,0,1,9.89,3.08,1.51,1.51,0,0,1,11.42,4.85Z"/></g></g></svg>