<svg viewBox="0 0 23 22" fill="none" xmlns="http://www.w3.org/2000/svg">
<path d="M20.0788 0.305657L15.3229 5.06357L13.5581 3.29885C13.2559 2.99661 12.8152 2.92056 12.4389 3.06681C12.3862 3.08826 12.3336 3.11361 12.2829 3.14286C12.2692 3.15066 12.2536 3.15651 12.24 3.16626C12.1834 3.20331 12.1288 3.24816 12.0781 3.29885C12.0274 3.34955 11.9845 3.40415 11.9455 3.4607C11.9358 3.47435 11.9299 3.48995 11.9221 3.5036C11.8929 3.5543 11.8675 3.605 11.8461 3.6596C11.8266 3.70835 11.8129 3.7571 11.8012 3.80585C11.7817 3.88384 11.7681 3.96379 11.7681 4.04764V9.99309C11.7681 10.5781 12.2419 11.0519 12.8269 11.0519H18.7723C18.8835 11.0519 18.9888 11.0305 19.0882 10.9993C19.1194 10.9895 19.1526 10.9837 19.1818 10.97C19.1916 10.9661 19.2013 10.9583 19.213 10.9544C19.3242 10.9037 19.4314 10.8355 19.5231 10.7438C19.6147 10.6522 19.683 10.5469 19.7337 10.4338C19.7376 10.424 19.7454 10.4143 19.7493 10.4026C19.761 10.3733 19.7688 10.3402 19.7785 10.309C19.8877 9.95019 19.8058 9.54655 19.5231 9.2638L17.7584 7.49908L22.5143 2.74311C22.9238 2.33362 22.9238 1.67063 22.5143 1.26114L21.5588 0.305657C21.1513 -0.101886 20.4883 -0.101886 20.0788 0.305657Z" fill="#64719C"/>
<path d="M3.56635 21.6929L8.32232 16.9369L10.087 18.7016C10.3893 19.0039 10.83 19.0799 11.2063 18.9337C11.259 18.9122 11.3116 18.8869 11.3623 18.8576C11.376 18.8498 11.3916 18.844 11.4052 18.8342C11.4618 18.7972 11.5164 18.7523 11.5671 18.7016C11.6178 18.6509 11.6607 18.5963 11.6997 18.5398C11.7094 18.5261 11.7153 18.5105 11.7231 18.4969C11.7523 18.4462 11.7777 18.3955 11.7991 18.3409C11.8186 18.2921 11.8323 18.2434 11.844 18.1947C11.8635 18.1167 11.8771 18.0367 11.8771 17.9529V12.0074C11.8771 11.4224 11.4033 10.9486 10.8183 10.9486H4.87283C4.76168 10.9486 4.65638 10.97 4.55694 11.0012C4.52574 11.011 4.49259 11.0168 4.46334 11.0305C4.45359 11.0344 4.44384 11.0422 4.43214 11.0461C4.32099 11.0968 4.21374 11.165 4.12209 11.2567C4.03045 11.3483 3.9622 11.4536 3.9115 11.5667C3.9076 11.5765 3.8998 11.5862 3.8959 11.5979C3.8842 11.6272 3.8764 11.6603 3.86665 11.6915C3.75745 12.0503 3.83935 12.454 4.12209 12.7367L5.88681 14.5014L1.1289 19.2554C0.719404 19.6649 0.719404 20.3279 1.1289 20.7374L2.08438 21.6929C2.49387 22.1024 3.15686 22.1024 3.56635 21.6929Z" fill="#64719C"/>
</svg>
