<svg width="91" height="33" viewBox="0 0 91 33" fill="none" xmlns="http://www.w3.org/2000/svg">
<path d="M13.978 16.5239C13.978 17.3251 13.978 18.0788 13.978 18.8641C11.759 18.8641 9.56113 18.8641 7.32632 18.8641C7.32632 13.061 7.32632 7.25786 7.32632 1.43892C5.87686 1.43892 4.46429 1.43892 3.03064 1.43892C3.03064 0.954011 3.03064 0.490182 3.03064 0C11.7907 0 20.5665 0 29.3793 0C29.4478 3.35749 29.5216 6.72551 29.5901 10.1146C29.1105 10.1146 28.6519 10.1146 28.1723 10.1146C27.8455 9.03939 27.5187 7.96415 27.1866 6.88891C26.8229 5.72934 26.3486 4.62247 25.5948 3.65265C24.4774 2.21373 22.9858 1.47582 21.1885 1.44946C18.8272 1.4073 16.4606 1.43365 14.0993 1.43365C14.0782 1.43365 14.0571 1.44946 14.0097 1.46528C14.0097 5.92436 14.0097 10.3887 14.0097 14.8952C17.5358 14.8952 21.0567 14.8952 24.5987 14.8952C24.5987 15.4539 24.5987 15.9757 24.5987 16.5239C21.0725 16.5239 17.5464 16.5239 13.978 16.5239Z" fill="#141B36"/>
<path d="M3.00964 32.4258C3.00964 31.9356 3.00964 31.4771 3.00964 30.9974C3.12033 30.9922 3.22047 30.9816 3.32589 30.9816C3.42076 30.9764 3.51564 30.9816 3.61578 30.9816C6.89948 30.9711 10.1884 30.95 13.4721 30.9447C15.8809 30.9447 18.2949 30.9816 20.7036 30.9711C21.3678 30.9658 22.0477 30.892 22.696 30.7444C23.8661 30.4809 24.7569 29.7641 25.479 28.8259C26.2432 27.835 26.7387 26.7123 27.1235 25.5316C27.4766 24.4511 27.8245 23.3706 28.1776 22.2796C28.6414 22.2796 29.0947 22.2796 29.5902 22.2796C29.5217 25.6634 29.4479 29.0367 29.3794 32.4258C20.5771 32.4258 11.8066 32.4258 3.00964 32.4258Z" fill="#141B36"/>
<path d="M9.99866 25.4315C9.99866 24.7358 9.99866 24.0769 9.99866 23.3864C13.9254 23.3864 17.8363 23.3864 21.7788 23.3864C21.7788 24.0558 21.7788 24.7305 21.7788 25.4315C17.8627 25.4315 13.9465 25.4315 9.99866 25.4315Z" fill="#64719C"/>
<path d="M53.3561 19.7602C52.7763 19.7602 52.2334 19.7602 51.6483 19.7602C51.4902 19.4123 51.3321 19.0275 51.1423 18.6586C50.8472 18.084 50.5467 17.5095 50.2147 16.9614C49.9406 16.5081 49.5031 16.35 48.9813 16.429C48.9813 17.2618 48.955 18.0735 48.9919 18.8852C49.0077 19.2647 49.287 19.4966 49.6665 19.5862C49.793 19.6178 49.9248 19.6495 50.0513 19.6758C50.046 19.7022 50.0407 19.7285 50.0355 19.7602C48.955 19.7602 47.8745 19.7602 46.7939 19.7602C46.7887 19.7338 46.7834 19.7022 46.7781 19.6758C46.8835 19.6495 46.9942 19.6231 47.0996 19.5968C47.5635 19.4808 47.8007 19.2225 47.827 18.7376C47.8534 18.2105 47.8481 17.6835 47.8481 17.1564C47.8481 16.1708 47.8534 15.1904 47.8428 14.2048C47.8323 13.3403 47.7005 13.1822 46.873 12.9556C46.8414 12.945 46.815 12.9187 46.736 12.866C46.8519 12.8396 46.9204 12.808 46.9942 12.808C48.0378 12.808 49.0815 12.7975 50.1251 12.8185C50.4571 12.8238 50.7945 12.8818 51.116 12.9661C51.8802 13.1664 52.3546 13.7725 52.3652 14.5263C52.381 15.3432 51.9698 15.9178 51.1898 16.1813C51.0896 16.2129 50.9842 16.2445 50.8366 16.292C51.2583 16.487 51.4217 16.8454 51.5956 17.1986C51.8855 17.7994 52.1965 18.395 52.5127 18.9906C52.6761 19.3016 52.8817 19.5862 53.2665 19.6547C53.2875 19.6495 53.3034 19.6916 53.3561 19.7602ZM48.9391 16.2393C49.735 16.292 50.4729 16.2604 50.9315 15.4803C51.2688 14.9058 51.2214 14.0519 50.7997 13.5143C50.3095 12.8923 49.6243 12.945 48.9391 12.9503C48.9391 14.0783 48.9391 15.1482 48.9391 16.2393Z" fill="#64719C"/>
<path d="M83.5314 16.4132C83.4102 14.3523 85.3129 12.6604 87.2525 12.6604C89.208 12.6604 90.9948 14.2627 91.0001 16.2445C91.0053 18.2685 89.3029 19.8919 87.3 19.9341C85.2918 19.971 83.505 18.4372 83.5314 16.4132ZM84.7437 16.3868C84.7226 17.3672 84.9861 18.258 85.6292 19.0117C86.1615 19.6389 86.8362 19.8814 87.6531 19.7443C88.5544 19.5915 89.0657 18.9643 89.4136 18.2053C89.8879 17.1722 89.8932 16.0917 89.6033 14.9954C89.4294 14.3365 89.15 13.7304 88.6335 13.2876C87.7533 12.5339 86.23 12.613 85.4868 13.7356C84.9492 14.5421 84.7542 15.4381 84.7437 16.3868Z" fill="#64719C"/>
<path d="M31.5666 15.5593C32.0515 14.9216 32.5206 14.3576 32.9317 13.7567C33.2216 13.3351 33.0846 13.0874 32.5733 12.9767C32.489 12.9609 32.4047 12.9292 32.3309 12.8344C33.111 12.8344 33.8858 12.8344 34.7133 12.8344C34.6448 12.8976 34.6237 12.9345 34.6026 12.9345C34.0808 12.9345 33.7276 13.2349 33.4272 13.6039C32.858 14.2996 32.294 15.0006 31.7247 15.7017C31.7511 15.7702 31.7669 15.8282 31.7985 15.8756C32.4099 16.7822 33.0161 17.6887 33.6328 18.5848C33.7803 18.8009 33.9437 19.0223 34.1493 19.1804C34.3759 19.3596 34.6606 19.4703 34.9188 19.6073C34.9926 19.6442 35.0822 19.66 35.1613 19.6811C35.156 19.7022 35.1507 19.7285 35.1507 19.7496C33.9754 19.7496 32.7947 19.7496 31.6193 19.7496C31.6141 19.718 31.6088 19.6916 31.5982 19.66C31.7247 19.6284 31.8512 19.5968 31.9777 19.5651C32.4995 19.4386 32.6366 19.1593 32.3572 18.706C31.9303 18.0155 31.477 17.3356 31.0237 16.6346C30.9552 16.6873 30.9025 16.7136 30.8709 16.7558C30.4545 17.2671 30.0328 17.7731 29.627 18.2949C29.511 18.4425 29.4056 18.6111 29.3371 18.7903C29.179 19.2015 29.3265 19.4597 29.7482 19.5757C29.8589 19.6073 29.9748 19.6337 30.1066 19.6706C29.8905 19.8076 28.0141 19.8339 27.5819 19.7127C27.6557 19.6653 27.7031 19.6284 27.7558 19.5968C28.0405 19.4281 28.3831 19.3121 28.5992 19.0802C29.3792 18.2211 30.1172 17.3251 30.8867 16.4238C30.1909 15.4012 29.5216 14.4103 28.8416 13.4247C28.6624 13.1664 28.4147 13.0083 28.0932 12.9872C27.9772 12.9819 27.8665 12.9398 27.7242 12.9081C27.9719 12.7711 30.7286 12.7553 31.1186 12.8923C30.892 12.9398 30.7286 12.9661 30.5652 13.0083C30.2858 13.0874 30.1962 13.2402 30.2753 13.5196C30.3069 13.6355 30.3596 13.7462 30.4229 13.8463C30.7707 14.3998 31.145 14.9374 31.5666 15.5593Z" fill="#64719C"/>
<path d="M59.3648 19.6653C59.4702 19.6389 59.5756 19.6073 59.6863 19.5809C60.2292 19.4597 60.4348 19.1382 60.2503 18.6006C60.0605 18.0577 59.8339 17.5306 59.6178 16.9877C58.8799 16.9877 58.1473 16.9877 57.3619 16.9877C57.1722 17.5306 56.9455 18.0788 56.7821 18.6533C56.6556 19.1066 56.8875 19.4334 57.3461 19.5862C57.4252 19.6126 57.5042 19.6495 57.5675 19.7549C56.8137 19.7549 56.06 19.7549 55.2694 19.7549C55.3116 19.7022 55.3327 19.6442 55.359 19.6389C55.923 19.5388 56.2129 19.1329 56.429 18.6638C56.6504 18.1895 56.8454 17.6993 57.0351 17.2091C57.578 15.8176 58.1156 14.4209 58.6532 13.0241C58.6796 12.9556 58.7112 12.8923 58.7481 12.8133C58.843 12.808 58.9326 12.8027 59.038 12.7975C59.0855 12.8923 59.1276 12.9714 59.1645 13.061C59.8708 14.7635 60.5771 16.4659 61.2834 18.1684C61.3782 18.4003 61.4784 18.6322 61.5838 18.8589C61.7683 19.2594 62.0424 19.5599 62.5167 19.602C62.5747 19.6073 62.6327 19.6284 62.6907 19.6547C62.7065 19.66 62.7117 19.6916 62.7434 19.7496C61.6102 19.7496 60.498 19.7496 59.3859 19.7496C59.3753 19.7233 59.3701 19.6969 59.3648 19.6653ZM59.5177 16.8191C59.1592 15.9178 58.8219 15.0639 58.4635 14.152C58.1156 15.0797 57.7941 15.9388 57.4673 16.8191C58.1525 16.8191 58.8114 16.8191 59.5177 16.8191Z" fill="#64719C"/>
<path d="M40.2424 12.9081C39.6626 12.9766 39.125 13.0083 38.5979 13.1084C38.0234 13.2191 37.7177 13.646 37.528 14.1731C37.47 14.3365 37.4226 14.5052 37.3171 14.658C37.3171 14.0519 37.3171 13.4457 37.3171 12.8238C39.6574 12.8238 41.9449 12.8238 44.2746 12.8238C44.3062 13.4299 44.3378 14.0361 44.3694 14.6475C44.3378 14.658 44.3009 14.6633 44.2693 14.6738C44.2324 14.5631 44.1902 14.4525 44.1533 14.3418C43.8951 13.4985 43.3996 13.0926 42.5247 13.0188C42.1452 12.9872 41.7657 12.9661 41.3598 12.9397C41.3493 13.0821 41.3387 13.1875 41.3387 13.2876C41.3387 14.9426 41.3387 16.5977 41.3387 18.2527C41.3387 18.3476 41.3387 18.4424 41.344 18.5426C41.3862 19.0907 41.5127 19.523 42.2506 19.6389C42.3033 19.6494 42.3507 19.6758 42.4245 19.7022C42.1768 19.8181 39.5678 19.8392 39.1725 19.6863C39.2884 19.6547 39.3991 19.6178 39.5151 19.5915C39.9104 19.5019 40.137 19.2489 40.1897 18.8483C40.2161 18.6585 40.2424 18.4688 40.2424 18.279C40.2477 16.5871 40.2477 14.8952 40.2477 13.2086C40.2582 13.1295 40.253 13.061 40.2424 12.9081Z" fill="#64719C"/>
<path d="M77.8442 12.9345C77.8442 13.0979 77.8442 13.2033 77.8442 13.3087C77.8442 14.9532 77.8442 16.5924 77.8442 18.2369C77.8442 18.3581 77.8389 18.4793 77.8548 18.5953C77.9075 19.0908 78.0129 19.5071 78.7455 19.6284C78.7982 19.6389 78.8562 19.66 78.93 19.6811C78.7033 19.8234 75.9889 19.8339 75.6463 19.6916C75.7992 19.6495 75.9046 19.6178 76.0153 19.5915C76.4316 19.5019 76.653 19.2383 76.711 18.8272C76.7321 18.648 76.7637 18.4688 76.7637 18.2896C76.769 16.5871 76.769 14.8847 76.769 13.1822C76.769 13.1242 76.7637 13.0663 76.7584 12.9608C76.0732 12.9608 75.388 12.9398 74.7608 13.2455C74.3128 13.4668 74.1178 13.9043 73.9807 14.3629C73.9491 14.4683 73.9175 14.5684 73.8279 14.6528C73.8279 14.0519 73.8279 13.4563 73.8279 12.8291C76.1734 12.8291 78.4662 12.8291 80.7906 12.8291C80.8222 13.4352 80.8538 14.0413 80.8855 14.6475C80.8591 14.658 80.8327 14.6633 80.8117 14.6738C80.78 14.6159 80.7379 14.5579 80.7221 14.4946C80.3847 13.4194 79.9841 13.0979 78.8404 13.003C78.5241 12.9714 78.2132 12.9556 77.8442 12.9345Z" fill="#64719C"/>
<path d="M71.2135 12.8291C71.2135 13.5828 71.2135 14.3365 71.2135 15.0902C71.1924 15.1008 71.1714 15.1061 71.1556 15.1166C71.0923 14.9637 71.0185 14.8109 70.9605 14.6475C70.7919 14.1679 70.5758 13.7198 70.2068 13.3614C69.4636 12.6446 68.3515 12.6077 67.5767 13.3035C66.8493 13.9518 66.5173 14.8056 66.4224 15.7491C66.3433 16.5186 66.396 17.2776 66.6859 18.0155C67.2341 19.4123 68.7521 20.0395 70.1225 19.4176C70.7128 19.154 70.9869 18.6533 71.1556 18.0682C71.1872 17.9628 71.2083 17.8574 71.2399 17.7573C71.2452 17.7414 71.2715 17.7256 71.3189 17.6887C71.3295 17.7731 71.3558 17.831 71.3453 17.889C71.1556 19.0433 70.5547 19.6811 69.3898 19.8708C68.1617 20.0711 67.0233 19.8656 66.1009 18.9432C65.5843 18.4214 65.3155 17.7731 65.2259 17.051C65.0836 15.8756 65.247 14.7529 66.064 13.8516C67.0602 12.75 68.341 12.4654 69.7693 12.7816C69.9696 12.8238 70.1646 12.8871 70.3544 12.9556C70.6496 13.0663 70.9289 13.1506 71.1292 12.7711C71.1556 12.7922 71.1819 12.808 71.2135 12.8291Z" fill="#64719C"/>
<path d="M2.88836 16.9982C1.92381 16.9982 0.980343 16.9982 0.00524902 16.9982C0.00524902 16.313 0.00524902 15.6226 0.00524902 14.9163C0.95926 14.9163 1.91327 14.9163 2.88836 14.9163C2.88836 15.6015 2.88836 16.2814 2.88836 16.9982Z" fill="#64719C"/>
<path d="M0 23.3706C0.964553 23.3706 1.90802 23.3706 2.88312 23.3706C2.88312 24.0558 2.88312 24.7305 2.88312 25.4262C1.93438 25.4262 0.980365 25.4262 0 25.4262C0 24.7621 0 24.0875 0 23.3706Z" fill="#64719C"/>
<path d="M7.85875 23.3864C7.85875 24.0716 7.85875 24.741 7.85875 25.4315C6.89419 25.4315 5.94545 25.4315 4.96509 25.4315C4.96509 24.7621 4.96509 24.0875 4.96509 23.3864C5.91383 23.3864 6.86257 23.3864 7.85875 23.3864Z" fill="#64719C"/>
</svg>
